<svg width="77" height="93" viewBox="0 0 77 93" fill="none" xmlns="http://www.w3.org/2000/svg">
<path d="M15.2085 62.436L15.2225 62.448C15.2225 62.448 18.4235 57.278 25.9595 56.736C33.4985 56.193 37.3595 60.266 38.0295 60.847C38.0355 60.85 38.0485 60.845 38.0525 60.849C39.7255 62.365 41.9815 63.229 44.4085 63.055C49.1325 62.716 52.6835 58.611 52.3425 53.889C52.0055 49.171 47.9015 45.614 43.1775 45.953C40.7495 46.129 38.6445 47.308 37.2035 49.046C37.1985 49.051 37.1855 49.047 37.1795 49.052C36.6005 49.723 33.3625 54.308 25.8245 54.85C18.2885 55.393 14.3805 50.735 14.3805 50.735L14.3685 50.749C12.6885 49.206 10.4155 48.313 7.96049 48.489C3.23649 48.829 -0.317503 52.936 0.0224971 57.656C0.361497 62.376 4.4655 65.93 9.1905 65.591C11.6455 65.415 13.7685 64.209 15.2085 62.436Z" fill="url(#paint0_linear_50_148)"/>
<path d="M32.4086 37.776L32.4246 37.771C32.4246 37.771 29.8216 32.275 33.4586 25.653C37.0926 19.026 42.6096 17.993 43.4626 17.747C43.4686 17.746 43.4706 17.732 43.4766 17.73C45.6576 17.147 47.6076 15.723 48.7796 13.591C51.0596 9.44001 49.5396 4.22801 45.3896 1.95101C41.2416 -0.327994 36.0276 1.18901 33.7486 5.34101C32.5786 7.47201 32.4256 9.88101 33.1066 12.036C33.1066 12.044 33.0956 12.05 33.0936 12.057C33.3466 12.909 35.4366 18.119 31.8006 24.744C28.1636 31.367 22.1306 32.122 22.1306 32.122L22.1336 32.136C19.9266 32.709 17.9416 34.135 16.7576 36.293C14.4796 40.441 15.9986 45.657 20.1476 47.935C24.2996 50.213 29.5106 48.692 31.7896 44.544C32.9726 42.384 33.1126 39.946 32.4086 37.776Z" fill="url(#paint1_linear_50_148)"/>
<path d="M68.7194 51.739L68.7224 51.721C68.7224 51.721 62.6424 51.923 58.0154 45.945C53.3874 39.976 54.6364 34.5 54.7504 33.623C54.7524 33.615 54.7374 33.609 54.7394 33.602C55.0734 31.371 54.5494 29.014 53.0594 27.09C50.1564 23.343 44.7674 22.661 41.0254 25.562C37.2854 28.457 36.5994 33.845 39.4994 37.589C40.9924 39.514 43.1404 40.611 45.3844 40.848C45.3904 40.846 45.3974 40.861 45.4044 40.862C46.2844 40.971 51.8954 41.13 56.5184 47.103C61.1504 53.076 59.4374 58.911 59.4374 58.911L59.4544 58.913C59.0994 61.167 59.6164 63.556 61.1254 65.504C64.0224 69.246 69.4114 69.928 73.1514 67.028C76.8974 64.132 77.5804 58.742 74.6814 55.001C73.1744 53.057 70.9924 51.956 68.7194 51.739Z" fill="url(#paint2_linear_50_148)"/>
<path d="M2.36488 88.5943V78.4303H3.91852L10.2928 86.2566H9.52324V78.4303H11.3963V88.5943H9.84268L3.4684 80.768H4.23796V88.5943H2.36488ZM15.8622 82.6556H20.9152V84.2093H15.8622V82.6556ZM16.0074 87.0116H21.7428V88.5943H14.1198V78.4303H21.5396V80.013H16.0074V87.0116ZM25.9089 88.5943V80.0275H22.5403V78.4303H31.1652V80.0275H27.7965V88.5943H25.9089ZM30.6338 88.5943L35.2076 78.4303H37.0662L41.6545 88.5943H39.6798L35.7449 79.4322H36.4999L32.5795 88.5943H30.6338ZM32.7392 86.2421L33.2474 84.761H38.736L39.2442 86.2421H32.7392ZM44.6895 82.6556H49.7425V84.2093H44.6895V82.6556ZM44.8347 87.0116H50.5701V88.5943H42.9471V78.4303H50.3669V80.013H44.8347V87.0116ZM57.4225 88.7395C56.6287 88.7395 55.8979 88.6137 55.2299 88.362C54.5717 88.1006 53.9957 87.7376 53.5021 87.273C53.0084 86.7987 52.626 86.2421 52.355 85.6032C52.0839 84.9643 51.9484 84.2673 51.9484 83.5123C51.9484 82.7573 52.0839 82.0603 52.355 81.4214C52.626 80.7825 53.0084 80.2308 53.5021 79.7661C54.0054 79.2918 54.5911 78.9288 55.259 78.6771C55.9269 78.4158 56.6577 78.2851 57.4515 78.2851C58.313 78.2851 59.0874 78.4255 59.7747 78.7062C60.4717 78.9869 61.0573 79.3983 61.5316 79.9404L60.341 81.102C59.9441 80.7051 59.5133 80.4147 59.0487 80.2308C58.5937 80.0372 58.0904 79.9404 57.5386 79.9404C57.0062 79.9404 56.5125 80.0275 56.0576 80.2017C55.6026 80.376 55.2106 80.6228 54.8815 80.9423C54.5523 81.2617 54.2958 81.6392 54.1119 82.0748C53.9377 82.5104 53.8505 82.9896 53.8505 83.5123C53.8505 84.0253 53.9377 84.4997 54.1119 84.9353C54.2958 85.3709 54.5523 85.7532 54.8815 86.0823C55.2106 86.4018 55.5978 86.6486 56.0431 86.8229C56.4883 86.9971 56.982 87.0842 57.5241 87.0842C58.0275 87.0842 58.5115 87.0068 58.9761 86.8519C59.4504 86.6873 59.9005 86.4163 60.3265 86.0388L61.4009 87.4472C60.8685 87.8731 60.249 88.1974 59.5424 88.4201C58.8454 88.633 58.1388 88.7395 57.4225 88.7395ZM59.615 87.2004V83.3961H61.4009V87.4472L59.615 87.2004ZM63.8905 88.5943V78.4303H65.7781V88.5943H63.8905ZM71.6781 88.7395C70.8844 88.7395 70.1245 88.6282 69.3985 88.4055C68.6725 88.1732 68.0965 87.878 67.6706 87.5198L68.324 86.0533C68.7306 86.3727 69.2339 86.6389 69.8341 86.8519C70.4343 87.0649 71.0489 87.1713 71.6781 87.1713C72.2105 87.1713 72.6413 87.1133 72.9704 86.9971C73.2995 86.8809 73.5415 86.7261 73.6964 86.5325C73.8513 86.3292 73.9287 86.1017 73.9287 85.85C73.9287 85.5403 73.8174 85.2934 73.5948 85.1095C73.3721 84.9159 73.0817 84.7659 72.7236 84.6594C72.3751 84.5432 71.9831 84.4367 71.5475 84.3399C71.1215 84.2431 70.6908 84.1318 70.2552 84.006C69.8293 83.8705 69.4372 83.7011 69.0791 83.4978C68.7306 83.2848 68.445 83.0041 68.2224 82.6556C67.9997 82.3071 67.8884 81.8619 67.8884 81.3198C67.8884 80.768 68.0336 80.2647 68.324 79.8097C68.6241 79.3451 69.0742 78.9772 69.6744 78.7062C70.2842 78.4255 71.0538 78.2851 71.9831 78.2851C72.5929 78.2851 73.1979 78.3625 73.7981 78.5174C74.3982 78.6723 74.9209 78.8949 75.3662 79.1853L74.7709 80.6519C74.3159 80.3808 73.8465 80.1824 73.3625 80.0565C72.8785 79.921 72.4138 79.8533 71.9685 79.8533C71.4458 79.8533 71.0199 79.9162 70.6908 80.042C70.3713 80.1679 70.1342 80.3324 69.9793 80.5357C69.8341 80.739 69.7615 80.9713 69.7615 81.2327C69.7615 81.5424 69.868 81.7941 70.0809 81.9877C70.3036 82.1716 70.5891 82.3168 70.9376 82.4233C71.2958 82.5298 71.6927 82.6363 72.1283 82.7427C72.5639 82.8395 72.9946 82.9509 73.4205 83.0767C73.8561 83.2025 74.2482 83.3671 74.5967 83.5704C74.9548 83.7737 75.2404 84.0495 75.4533 84.398C75.676 84.7465 75.7873 85.1869 75.7873 85.7193C75.7873 86.2614 75.6373 86.7648 75.3372 87.2294C75.0468 87.6844 74.5967 88.0522 73.9868 88.3329C73.377 88.604 72.6074 88.7395 71.6781 88.7395Z" fill="#CD1114"/>
<defs>
<linearGradient id="paint0_linear_50_148" x1="-2.0062" y1="57.8021" x2="50.3759" y2="54.0312" gradientUnits="userSpaceOnUse">
<stop stop-color="#E78081"/>
<stop offset="0.5054" stop-color="#FF4346"/>
<stop offset="1" stop-color="#CD1114" stop-opacity="0.819608"/>
</linearGradient>
<linearGradient id="paint1_linear_50_148" x1="19.168" y1="49.7187" x2="44.4397" y2="3.68127" gradientUnits="userSpaceOnUse">
<stop stop-color="#E78081"/>
<stop offset="0.5054" stop-color="#FF4346"/>
<stop offset="1" stop-color="#CD1114"/>
</linearGradient>
<linearGradient id="paint2_linear_50_148" x1="74.3986" y1="68.6371" x2="42.2364" y2="27.1214" gradientUnits="userSpaceOnUse">
<stop stop-color="#E78081"/>
<stop offset="0.5054" stop-color="#FF4346"/>
<stop offset="1" stop-color="#CD1114"/>
</linearGradient>
</defs>
</svg>
