<svg width="205" height="68" viewBox="0 0 205 68" fill="none" xmlns="http://www.w3.org/2000/svg">
<path d="M15.2085 61.545L15.2225 61.557C15.2225 61.557 18.4235 56.387 25.9595 55.845C33.4985 55.302 37.3595 59.375 38.0295 59.956C38.0355 59.959 38.0485 59.954 38.0525 59.958C39.7255 61.474 41.9815 62.338 44.4085 62.164C49.1325 61.825 52.6835 57.72 52.3425 52.998C52.0055 48.28 47.9015 44.723 43.1775 45.062C40.7495 45.238 38.6445 46.417 37.2035 48.155C37.1985 48.16 37.1855 48.156 37.1795 48.161C36.6005 48.832 33.3625 53.417 25.8245 53.959C18.2885 54.502 14.3805 49.844 14.3805 49.844L14.3685 49.858C12.6885 48.315 10.4155 47.422 7.96049 47.598C3.23649 47.938 -0.317503 52.045 0.0224971 56.765C0.361497 61.485 4.4655 65.039 9.1905 64.7C11.6455 64.524 13.7685 63.318 15.2085 61.545Z" fill="url(#paint0_linear_57_35)"/>
<path d="M32.4086 36.885L32.4246 36.88C32.4246 36.88 29.8216 31.384 33.4586 24.762C37.0926 18.135 42.6096 17.102 43.4626 16.856C43.4686 16.855 43.4706 16.841 43.4766 16.839C45.6576 16.256 47.6076 14.832 48.7796 12.7C51.0596 8.54898 49.5396 3.33697 45.3896 1.05997C41.2416 -1.21903 36.0276 0.297976 33.7486 4.44998C32.5786 6.58098 32.4256 8.98998 33.1066 11.145C33.1066 11.153 33.0956 11.159 33.0936 11.166C33.3466 12.018 35.4366 17.228 31.8006 23.853C28.1636 30.476 22.1306 31.231 22.1306 31.231L22.1336 31.245C19.9266 31.818 17.9416 33.244 16.7576 35.402C14.4796 39.55 15.9986 44.766 20.1476 47.044C24.2996 49.322 29.5106 47.801 31.7896 43.653C32.9726 41.493 33.1126 39.055 32.4086 36.885Z" fill="url(#paint1_linear_57_35)"/>
<path d="M68.7194 50.848L68.7224 50.83C68.7224 50.83 62.6424 51.032 58.0154 45.054C53.3874 39.085 54.6364 33.609 54.7504 32.732C54.7524 32.724 54.7374 32.718 54.7394 32.711C55.0734 30.48 54.5494 28.123 53.0594 26.199C50.1564 22.452 44.7674 21.77 41.0254 24.671C37.2854 27.566 36.5994 32.954 39.4994 36.698C40.9924 38.623 43.1404 39.72 45.3844 39.957C45.3904 39.955 45.3974 39.97 45.4044 39.971C46.2844 40.08 51.8954 40.239 56.5184 46.212C61.1504 52.185 59.4374 58.02 59.4374 58.02L59.4544 58.022C59.0994 60.276 59.6164 62.665 61.1254 64.613C64.0224 68.355 69.4114 69.037 73.1514 66.137C76.8974 63.241 77.5804 57.851 74.6814 54.11C73.1744 52.166 70.9924 51.065 68.7194 50.848Z" fill="url(#paint2_linear_57_35)"/>
<path d="M101.683 47L99.9011 36.902L97.9211 21.296H93.5651V18.2H100.279L101.917 27.632L104.185 43.868H108.523V47H101.683ZM93.5651 47V22.79H96.5351L96.8051 36.02L97.0391 47H93.5651ZM105.517 42.374L105.229 28.946L105.013 18.2H108.523V42.374H105.517ZM112.69 47V18.2H116.182V47H112.69ZM118.234 47V43.886H123.148V47H118.234ZM118.234 34.022V30.908H122.788V34.022H118.234ZM118.234 21.314V18.2H123.148V21.314H118.234ZM128.942 47V22.7H132.434V47H128.942ZM124.406 21.314V18.2H136.952V21.314H124.406ZM137.007 47L140.337 18.2H147.123L147.465 21.314H142.983L142.461 30.044L141.795 36.272H144.675L143.847 39.386H141.471L140.589 47H137.007ZM146.781 47L144.999 30.008L144.531 22.88H147.573L150.363 47H146.781ZM153.331 47V18.2H156.823V47H153.331ZM158.875 47V43.886H163.789V47H158.875ZM158.875 34.022V30.908H163.429V34.022H158.875ZM158.875 21.314V18.2H163.789V21.314H158.875ZM171.905 47.234C170.081 47.126 168.767 46.64 167.963 45.776C167.159 44.9 166.739 43.55 166.703 41.726C166.667 40.262 166.637 38.768 166.613 37.244C166.601 35.72 166.595 34.19 166.595 32.654C166.595 31.106 166.601 29.57 166.613 28.046C166.637 26.522 166.667 25.04 166.703 23.6C166.751 21.728 167.177 20.348 167.981 19.46C168.785 18.572 170.093 18.074 171.905 17.966V20.936C171.269 21.032 170.831 21.248 170.591 21.584C170.351 21.92 170.219 22.43 170.195 23.114C170.135 24.782 170.093 26.396 170.069 27.956C170.045 29.516 170.033 31.058 170.033 32.582C170.033 34.106 170.045 35.648 170.069 37.208C170.093 38.768 170.135 40.388 170.195 42.068C170.219 42.752 170.351 43.262 170.591 43.598C170.831 43.934 171.269 44.15 171.905 44.246V47.234ZM173.939 47.234V44.264C174.611 44.168 175.079 43.952 175.343 43.616C175.607 43.28 175.757 42.764 175.793 42.068C175.805 41.552 175.811 41.042 175.811 40.538C175.823 40.034 175.823 39.53 175.811 39.026C175.811 38.522 175.805 38.012 175.793 37.496H173.147V34.382H179.213C179.249 35.774 179.261 37.07 179.249 38.27C179.237 39.47 179.213 40.622 179.177 41.726C179.105 43.562 178.667 44.912 177.863 45.776C177.071 46.64 175.763 47.126 173.939 47.234ZM175.577 28.388C175.613 27.428 175.631 26.546 175.631 25.742C175.631 24.938 175.613 24.062 175.577 23.114C175.541 22.43 175.409 21.926 175.181 21.602C174.953 21.278 174.539 21.062 173.939 20.954V17.966C175.691 18.086 176.957 18.578 177.737 19.442C178.529 20.294 178.973 21.626 179.069 23.438C179.105 24.266 179.123 25.088 179.123 25.904C179.123 26.72 179.105 27.548 179.069 28.388H175.577ZM182.827 47V18.2H186.319V47H182.827ZM195.117 47.234C193.365 47.102 192.087 46.61 191.283 45.758C190.491 44.894 190.059 43.55 189.987 41.726C189.975 41.126 189.969 40.544 189.969 39.98C189.969 39.416 189.975 38.852 189.987 38.288C190.011 37.712 190.041 37.112 190.077 36.488H193.389C193.341 37.508 193.311 38.492 193.299 39.44C193.299 40.388 193.329 41.324 193.389 42.248C193.425 42.848 193.575 43.304 193.839 43.616C194.103 43.928 194.529 44.138 195.117 44.246V47.234ZM197.151 47.234V44.228C197.679 44.12 198.069 43.916 198.321 43.616C198.573 43.304 198.723 42.848 198.771 42.248C198.819 41.756 198.843 41.234 198.843 40.682C198.855 40.13 198.849 39.578 198.825 39.026C198.813 38.474 198.795 37.952 198.771 37.46C198.735 36.608 198.531 35.954 198.159 35.498C197.799 35.03 197.241 34.7 196.485 34.508L194.145 33.968C193.101 33.704 192.273 33.326 191.661 32.834C191.061 32.342 190.629 31.688 190.365 30.872C190.101 30.056 189.951 29.048 189.915 27.848C189.903 27.128 189.903 26.402 189.915 25.67C189.927 24.926 189.939 24.176 189.951 23.42C189.999 21.62 190.425 20.294 191.229 19.442C192.033 18.578 193.329 18.086 195.117 17.966V20.954C194.553 21.062 194.139 21.272 193.875 21.584C193.623 21.884 193.473 22.328 193.425 22.916C193.377 23.768 193.353 24.59 193.353 25.382C193.353 26.174 193.377 26.996 193.425 27.848C193.473 28.748 193.629 29.432 193.893 29.9C194.157 30.356 194.607 30.662 195.243 30.818L197.403 31.286C198.579 31.55 199.515 31.94 200.211 32.456C200.907 32.96 201.417 33.626 201.741 34.454C202.065 35.27 202.245 36.272 202.281 37.46C202.305 37.904 202.317 38.372 202.317 38.864C202.317 39.356 202.311 39.848 202.299 40.34C202.287 40.832 202.275 41.294 202.263 41.726C202.179 43.55 201.741 44.894 200.949 45.758C200.157 46.622 198.891 47.114 197.151 47.234ZM198.735 28.388C198.771 27.356 198.789 26.402 198.789 25.526C198.801 24.638 198.789 23.768 198.753 22.916C198.741 22.328 198.609 21.878 198.357 21.566C198.105 21.254 197.703 21.05 197.151 20.954V17.966C198.855 18.098 200.097 18.59 200.877 19.442C201.657 20.294 202.083 21.626 202.155 23.438C202.179 24.134 202.185 24.914 202.173 25.778C202.161 26.63 202.137 27.5 202.101 28.388H198.735Z" fill="#CD1114"/>
<defs>
<linearGradient id="paint0_linear_57_35" x1="-2.0062" y1="56.911" x2="50.3759" y2="53.1402" gradientUnits="userSpaceOnUse">
<stop stop-color="#E78081"/>
<stop offset="0.5054" stop-color="#FF4346"/>
<stop offset="1" stop-color="#CD1114" stop-opacity="0.819608"/>
</linearGradient>
<linearGradient id="paint1_linear_57_35" x1="19.168" y1="48.8277" x2="44.4397" y2="2.79024" gradientUnits="userSpaceOnUse">
<stop stop-color="#E78081"/>
<stop offset="0.5054" stop-color="#FF4346"/>
<stop offset="1" stop-color="#CD1114"/>
</linearGradient>
<linearGradient id="paint2_linear_57_35" x1="74.3986" y1="67.7461" x2="42.2364" y2="26.2304" gradientUnits="userSpaceOnUse">
<stop stop-color="#E78081"/>
<stop offset="0.5054" stop-color="#FF4346"/>
<stop offset="1" stop-color="#CD1114"/>
</linearGradient>
</defs>
</svg>
